PathFileType	4	(X/Y/Z)	C:/Users/opensim2020/Desktop/walking_exp_matlab/subject06_walking13_straight_03.trc																																																																																																																																																				
DataRate	CameraRate	NumFrames	NumMarkers	Units	OrigDataRate	OrigDataStartFrame	OrigNumFrames																																																																																																																																																
100	100	6	50	mm	100	2229	172																																																																																																																																																
Frame#	Time	LFHD			RFHD			LBHD			RBHD			C7			T10			CLAV			STRN			RBAK			LSHO			LUPA			LELB			LFRM			LWRA			LWRB			LFIN			RSHO			RUPA			RELB			RFRM			RWRA			RWRB			RFIN			LASI			RASI			LPSI			RPSI			LTHI			LKNE			LTIB			LANK			LHEE			LTOE			RTHI			RKNE			RTIB			RANK			RHEE			RTOE			*39			*40			*41			*42			*43			*44			*45			*46			*47			*48			*49		
		X1	Y1	Z1	X2	Y2	Z2	X3	Y3	Z3	X4	Y4	Z4	X5	Y5	Z5	X6	Y6	Z6	X7	Y7	Z7	X8	Y8	Z8	X9	Y9	Z9	X10	Y10	Z10	X11	Y11	Z11	X12	Y12	Z12	X13	Y13	Z13	X14	Y14	Z14	X15	Y15	Z15	X16	Y16	Z16	X17	Y17	Z17	X18	Y18	Z18	X19	Y19	Z19	X20	Y20	Z20	X21	Y21	Z21	X22	Y22	Z22	X23	Y23	Z23	X24	Y24	Z24	X25	Y25	Z25	X26	Y26	Z26	X27	Y27	Z27	X28	Y28	Z28	X29	Y29	Z29	X30	Y30	Z30	X31	Y31	Z31	X32	Y32	Z32	X33	Y33	Z33	X34	Y34	Z34	X35	Y35	Z35	X36	Y36	Z36	X37	Y37	Z37	X38	Y38	Z38	X39	Y39	Z39	X40	Y40	Z40	X41	Y41	Z41	X42	Y42	Z42	X43	Y43	Z43	X44	Y44	Z44	X45	Y45	Z45	X46	Y46	Z46	X47	Y47	Z47	X48	Y48	Z48	X49	Y49	Z49	X50	Y50	Z50
																																																																																																																																																							
44	0.43	-268.02487	1671.03809	-1045.25928	-280.62595	1655.43884	-914.78247	-401.22604	1620.96851	-1060.81787	-412.40002	1610.32739	-932.55499	-412.26016	1461.599	-1005.60742	-458.63956	1134.29846	-998.56683	-303.74234	1381.14063	-1001.13727	-268.26804	1205.52295	-1008.83252	-493.42026	1293.30884	-926.64807	-354.77414	1415.60022	-1165.03589	-362.54871	1212.3584	-1234.36328	-370.09546	1098.66626	-1243.63367	-334.30817	953.69513	-1270.81165	-248.81865	851.22351	-1243.625	-314.87701	835.48511	-1266.24683	-260.56827	764.51855	-1279.68835	-353.47876	1413.5415	-841.61096	-382.20709	1216.20715	-750.37958	-360.46469	1096.03101	-732.82343	-319.05069	983.46527	-715.98541	-229.99796	862.43414	-752.67438	-279.2948	852.50238	-707.56097	-225.47469	787.2066	-709.11841	-285.82925	970.82788	-1108.13635	-284.7327	975.52673	-888.62616	-444.75748	996.45233	-1080.90625	-436.17563	1002.27679	-912.92053	-297.01453	660.8053	-1177.01904	-251.51309	503.60004	-1159.87769	-391.76602	298.49622	-1153.82666	-478.22791	148.4243	-1118.67188	-515.59808	148.97124	-1067.74512	-370.15549	56.70593	-1135.04431	-332.95795	639.72455	-839.44965	-323.34607	515.07843	-866.91956	-380.26947	251.67368	-877.50043	-397.37482	67.32532	-930.93689	-436.94333	44.07737	-976.80829	-245.20917	34.74421	-930.71582	-372.13516	1710.31604	-994.56976	NaN	NaN	NaN	NaN	NaN	NaN	NaN	NaN	NaN	NaN	NaN	NaN	NaN	NaN	NaN	NaN	NaN	NaN	NaN	NaN	NaN	NaN	NaN	NaN	NaN	NaN	NaN	NaN	NaN	NaN
45	0.44	-258.64407	1670.80505	-1045.13416	-271.06067	1655.31873	-914.61346	-391.86377	1620.83032	-1060.45923	-403.10938	1610.22327	-932.07239	-402.95779	1461.40613	-1005.11737	-449.60742	1134.13342	-997.99847	-294.59122	1380.97839	-1000.75159	-259.21475	1205.31531	-1008.17859	-484.17221	1293.29089	-925.70862	-345.6113	1415.12	-1164.54187	-354.82263	1211.98657	-1233.93152	-363.66751	1098.52393	-1243.28918	-332.91174	952.40643	-1270.40515	-252.1263	846.17291	-1242.8623	-318.66245	833.48175	-1265.80542	-267.76096	759.97729	-1278.96301	-344.05145	1413.69434	-841.26947	-370.61221	1216.4707	-749.33801	-346.5582	1096.77344	-731.18939	-302.31183	985.37091	-714.34454	-210.37457	866.7627	-751.17053	-258.84177	855.33362	-706.43597	-203.40231	791.99396	-707.28766	-276.50684	970.79565	-1107.34521	-276.38013	975.14014	-887.86255	-435.67419	996.46503	-1080.84155	-427.76273	1002.16748	-912.74255	-284.77966	661.67029	-1177.34131	-237.6557	505.13965	-1159.47961	-370.46347	294.38528	-1153.26624	-450.79166	140.83232	-1118.34167	-488.21274	139.63733	-1067.44958	-338.57391	54.29695	-1134.69727	-326.97787	639.36481	-839.35089	-318.79355	514.43549	-866.78906	-378.21774	251.55795	-877.20148	-397.1265	67.38647	-931.07458	-437.03915	44.33648	-976.80328	-245.08536	34.50978	-930.64197	-362.70761	1710.21692	-994.36163	NaN	NaN	NaN	NaN	NaN	NaN	NaN	NaN	NaN	NaN	NaN	NaN	NaN	NaN	NaN	NaN	NaN	NaN	NaN	NaN	NaN	NaN	NaN	NaN	NaN	NaN	NaN	NaN	NaN	NaN
46	0.45	-249.16013	1670.42542	-1044.97705	-261.70587	1655.1084	-914.36597	-382.49203	1620.55542	-1060.24072	-393.57108	1610.07581	-931.83362	-393.60345	1461.17236	-1004.78998	-440.64252	1133.95276	-997.4397	-285.39081	1380.67114	-1000.32104	-250.20651	1204.9281	-1007.63666	-474.86557	1293.19214	-924.7912	-336.21539	1414.73352	-1164.26758	-347.06882	1211.50928	-1233.52698	-357.60928	1098.39478	-1242.78381	-331.46603	951.32104	-1270.04883	-255.33516	841.67535	-1241.94543	-322.08902	831.90479	-1265.72595	-274.56836	756.07068	-1278.10071	-334.66464	1413.70178	-840.99506	-358.98746	1216.67688	-748.30652	-332.77396	1097.50073	-729.61969	-285.80371	987.32977	-712.71191	-190.86279	871.2702	-749.69934	-238.93953	858.48773	-704.84082	-181.69855	796.96619	-705.4303	-267.17886	970.67535	-1106.58069	-267.97485	974.67297	-887.16382	-426.51501	996.29309	-1080.72839	-419.22052	1001.86847	-912.5094	-272.88083	662.57935	-1177.56384	-224.10103	506.47726	-1159.08557	-349.60797	290.38934	-1153.22754	-422.86255	133.26262	-1118.05591	-460.19901	130.31885	-1067.15747	-306.70529	52.2599	-1134.65198	-320.69611	638.83582	-839.3446	-314.00854	513.97461	-866.57159	-375.86368	251.41946	-877.10248	-396.6377	67.44261	-931.25952	-436.81195	44.59832	-976.90204	-244.79286	34.1884	-930.53949	-353.20648	1709.95911	-994.14368	NaN	NaN	NaN	NaN	NaN	NaN	NaN	NaN	NaN	NaN	NaN	NaN	NaN	NaN	NaN	NaN	NaN	NaN	NaN	NaN	NaN	NaN	NaN	NaN	NaN	NaN	NaN	NaN	NaN	NaN
47	0.46	-239.70348	1669.98169	-1044.90076	-252.14798	1654.71167	-914.24054	-373.04141	1620.17542	-1059.97424	-384.108	1609.79077	-931.61548	-384.29218	1460.89709	-1004.49066	-431.75235	1133.78015	-996.92316	-276.18405	1380.26465	-999.95758	-241.13388	1204.45361	-1007.06451	-465.57843	1293.08313	-923.9527	-326.76556	1414.13562	-1163.96887	-339.4317	1210.89221	-1233.14294	-351.54404	1098.11389	-1242.34009	-329.9502	950.37567	-1269.57141	-258.18713	837.71851	-1240.92358	-324.99683	830.70868	-1265.74365	-280.86237	752.71088	-1277.17346	-325.2644	1413.61487	-840.75104	-347.47208	1216.79016	-747.3338	-319.16724	1098.18665	-728.11523	-269.43951	989.28833	-711.17108	-171.69952	875.7489	-748.21295	-219.12798	861.79132	-703.16046	-160.29987	802.03876	-703.69714	-257.90903	970.46161	-1105.8855	-259.32626	974.12933	-886.56873	-417.36798	995.94873	-1080.52783	-410.98395	1001.55103	-912.07831	-261.4371	663.25342	-1177.46716	-210.9072	507.57111	-1158.72485	-328.11652	285.98447	-1152.7959	-394.39142	125.80289	-1117.86548	-431.80045	121.16981	-1066.83167	-274.47821	50.60672	-1134.63525	-314.18542	638.29047	-839.42822	-309.20709	513.21326	-866.47284	-373.26074	251.18747	-877.05505	-396.02835	67.52605	-931.55353	-436.84875	45.09902	-976.87744	-244.48106	33.85278	-930.44244	-343.7189	1709.56177	-994.05945	NaN	NaN	NaN	NaN	NaN	NaN	NaN	NaN	NaN	NaN	NaN	NaN	NaN	NaN	NaN	NaN	NaN	NaN	NaN	NaN	NaN	NaN	NaN	NaN	NaN	NaN	NaN	NaN	NaN	NaN
48	0.47	-230.25365	1669.38074	-1044.7843	-242.6412	1654.26086	-914.22662	-363.60852	1619.64209	-1059.82214	-374.67685	1609.39551	-931.3689	-374.93884	1460.55518	-1004.28033	-422.6337	1133.29309	-996.38104	-266.85788	1379.69177	-999.64673	-232.0654	1203.80566	-1006.56635	-456.31757	1292.92175	-923.28064	-317.11273	1413.54126	-1163.86877	-331.81464	1210.23682	-1232.745	-345.77072	1097.71887	-1242.0188	-328.30606	949.55017	-1269.21399	-261.09485	834.17603	-1239.65979	-327.56769	830.04205	-1266.0094	-286.59149	749.90826	-1276.2157	-315.79663	1413.37354	-840.63354	-335.87366	1216.79236	-746.39972	-305.62274	1098.79773	-726.68488	-253.28925	991.20789	-709.68976	-152.76361	880.30933	-746.76996	-199.54773	864.90637	-702.12177	-139.19473	807.14191	-702.04956	-248.62431	970.18341	-1105.17358	-250.79218	973.48975	-885.90179	-408.20499	995.52979	-1080.27295	-402.91696	1001.13147	-911.33234	-250.3781	663.75226	-1177.29712	-198.24875	508.3645	-1158.36975	-307.00568	281.69827	-1152.88171	-365.56635	118.476	-1117.7489	-402.64584	112.09429	-1066.67249	-241.97615	49.33604	-1134.76672	-307.63861	637.58154	-839.56488	-304.21515	512.40839	-866.42279	-370.60498	250.87683	-877.18274	-395.50687	67.60263	-931.83746	-435.86987	44.77166	-977.3866	-244.06705	33.47869	-930.59619	-334.11554	1709.1012	-993.94897	NaN	NaN	NaN	NaN	NaN	NaN	NaN	NaN	NaN	NaN	NaN	NaN	NaN	NaN	NaN	NaN	NaN	NaN	NaN	NaN	NaN	NaN	NaN	NaN	NaN	NaN	NaN	NaN	NaN	NaN
49	0.48	-220.71353	1668.68677	-1044.75891	-232.9955	1653.68823	-914.13458	-354.1319	1618.96362	-1059.66138	-365.07312	1608.81995	-931.30719	-365.35611	1459.95081	-1004.13232	-413.56921	1132.78906	-995.87891	-257.54947	1378.98315	-999.38538	-222.95313	1203.10364	-1006.00726	-447.04129	1292.64197	-922.67322	-307.27744	1412.43689	-1163.51245	-324.38806	1209.48096	-1232.32007	-340.54034	1097.40613	-1241.42834	-326.6861	948.89459	-1268.74878	-263.4971	831.30499	-1238.34302	-329.5463	829.66742	-1266.17908	-291.76312	747.64032	-1275.14233	-306.37381	1413.00781	-840.50134	-324.29257	1216.76282	-745.57245	-292.13483	1099.36731	-725.36847	-237.38937	993.09174	-708.26373	-134.12152	884.84631	-745.4259	-180.78763	868.28375	-700.54993	-118.62056	812.29456	-700.41766	-239.29263	969.85773	-1104.58179	-241.88412	972.83405	-885.36072	-398.99274	994.97333	-1079.99341	-392.94211	1000.16327	-911.64429	-238.97966	663.88873	-1177.47815	-186.0009	508.87701	-1158.04504	-285.50189	277.28589	-1152.84229	-336.20099	111.41293	-1117.73767	-372.97498	103.23275	-1066.72473	-209.66949	48.10082	-1134.5354	-300.80914	636.8313	-839.83527	-298.85004	511.57516	-866.56592	-367.96704	250.58714	-877.32837	-395.0162	67.69479	-932.14764	-435.76688	44.96728	-977.55884	-243.75601	33.19491	-930.57794	-324.64032	1708.52979	-993.92334	NaN	NaN	NaN	NaN	NaN	NaN	NaN	NaN	NaN	NaN	NaN	NaN	NaN	NaN	NaN	NaN	NaN	NaN	NaN	NaN	NaN	NaN	NaN	NaN	NaN	NaN	NaN	NaN	NaN	NaN
